Simulation
nRows=40
nColumns=15
endheader
time  TH_x TH_y TH_z SC_y  SC_z  SC_x  AC_y  AC_z  AC_x  GH_y  GH_z  GH_yy  EL_x  PS_y
0.0  0.000000  0.000000  0.000000  -29.03135690709378  -0.24032784745016733  1.2271027593450463  49.02530631844496  4.676038249993642  -4.849988504526337  -111.54077583566308  2.3736078591335974  142.38216643173217  22.758190388019965  0.000000
0.031  0.000000  0.000000  0.000000  -28.9682219365629  -0.1098795978251706  1.4681418375832602  48.84209830607283  4.710717421340968  -5.009452192512705  -103.32435613665587  2.2599667678790767  134.09291970254773  22.746762971114492  0.000000
0.062  0.000000  0.000000  0.000000  -28.843774781007276  -0.051624172383184716  1.7064749865427935  48.74506118028125  4.5307705779278615  -5.216995116736953  -96.07010453052563  2.1534966664516944  126.80246743659927  22.74650473426113  0.000000
0.093  0.000000  0.000000  0.000000  -28.838163209213317  -0.06779811823004137  1.9520964886539172  48.67152753258416  4.264581795417776  -5.443042312814434  -89.52670726145072  2.010540651484633  120.21928499285991  22.7083482789551  0.000000
0.124  0.000000  0.000000  0.000000  -28.813470139386123  -0.11971663640809235  2.1885162071909217  48.60431620273294  3.990709712544221  -5.693404209729228  -83.48294179372952  1.8208018798517769  114.09686005813136  22.620028112654605  0.000000
0.155  0.000000  0.000000  0.000000  -28.824232981983556  -0.193244523653554  2.417583336808457  48.56423018316827  3.7374585680792594  -5.948012623280595  -74.98136846831044  1.5924309308115825  105.47716680141312  22.497845292225403  0.000000
0.186  0.000000  0.000000  0.000000  -28.84495439770074  -0.2724764125994595  2.628856873641858  48.51741058104533  3.516554272864904  -6.187829741620269  -60.88748818387066  1.3705973087246477  91.17281619709475  22.341068276960048  0.000000
0.217  0.000000  0.000000  0.000000  -28.89261878360288  -0.3513762029352445  2.823563016509121  48.4948333181039  3.325740525297562  -6.412684180268332  -37.71062686390345  1.2763995594327677  67.69173526121364  22.15934968439958  0.000000
0.248  0.000000  0.000000  0.000000  -28.95882781405734  -0.4226544418753392  3.000991315521567  48.46749257024905  3.165503677313871  -6.6109243118572545  -11.59818547540702  1.479944767851581  41.16335320558471  21.96524526508451  0.000000
0.279  0.000000  0.000000  0.000000  -29.041006843747947  -0.48245545127615963  3.164562346293834  48.454762833384144  3.0310580490442613  -6.789595649942716  7.314021603006591  2.008298518383504  21.73074303242126  21.759633597185797  0.000000
0.31  0.000000  0.000000  0.000000  -29.12968806495041  -0.5277594086296682  3.3198034892221684  48.44159805580221  2.923426666840798  -6.9447803500029615  18.250317121388534  2.7647178818214013  10.179632674499889  21.55753220146315  0.000000
0.34099999999999997  0.000000  0.000000  0.000000  -29.218352763743823  -0.5576695590293808  3.471922351617943  48.44158006137766  2.837080598146535  -7.079390808464218  24.6229708598499  3.676467021862402  3.1027877791812837  21.36268001822482  0.000000
0.372  0.000000  0.000000  0.000000  -29.305526699133903  -0.5766176139990761  3.62675337693076  48.45962410214405  2.7693638519243615  -7.189028337618416  28.44132234643186  4.703182378550029  -1.5091761562925468  21.200459063715957  0.000000
0.403  0.000000  0.000000  0.000000  -29.392198778940326  -0.5905305358253742  3.786710041906701  48.51178968622881  2.71378485881861  -7.268140574790353  30.734388890213605  5.825638474172563  -4.6985989251911935  21.092788483328  0.000000
0.434  0.000000  0.000000  0.000000  -29.48039696952913  -0.6066503751006248  3.9516952359990207  48.60922050918146  2.6689707184137768  -7.313213316614155  32.00395569096126  7.033003017044344  -6.974460605112252  21.065773442596953  0.000000
0.46499999999999997  0.000000  0.000000  0.000000  -29.56606203524138  -0.6265219262440777  4.119559531279271  48.75320842639781  2.634189247242624  -7.320840542894699  32.540295608658695  8.317806373241764  -8.614021013987381  21.12039535041704  0.000000
0.496  0.000000  0.000000  0.000000  -29.638622455566203  -0.6461407225295694  4.288054032996989  48.93766780424862  2.613288859081233  -7.296800816554034  32.569183242567874  9.677816430958725  -9.800768355900116  21.23518932630484  0.000000
0.527  0.000000  0.000000  0.000000  -29.68346566451676  -0.6563124632481268  4.458734597115645  49.14460283376166  2.610929398009093  -7.246987704671318  32.23796086968293  11.106891494599422  -10.622157089735879  21.372090435600743  0.000000
0.558  0.000000  0.000000  0.000000  -29.693551917508852  -0.6463603348755357  4.631457436257378  49.3572315393401  2.635339815635812  -7.180866056063176  31.686070335515982  12.601373237011394  -11.167603351110062  21.49765225588708  0.000000
0.589  0.000000  0.000000  0.000000  -29.67718154510786  -0.604510419026689  4.810259825885839  49.55814450554107  2.6889639276241155  -7.103002288537911  31.019156016088736  14.155088485366118  -11.514580812214565  21.59268004668587  0.000000
0.62  0.000000  0.000000  0.000000  -29.648972005275432  -0.5215446207717015  5.006719895006003  49.737439826907476  2.76545741917374  -7.023386122024756  30.338460523852  15.764504200952603  -11.761074171897414  21.64999551026044  0.000000
0.651  0.000000  0.000000  0.000000  -29.625825288166357  -0.3934495076046498  5.241832097990807  49.89106463504068  2.851103584486475  -6.953516557528344  29.708400385939605  17.425075024869056  -11.979057920127715  21.669787221082153  0.000000
0.6819999999999999  0.000000  0.000000  0.000000  -29.61147659789087  -0.22536149053236498  5.523703409198257  50.02240525973578  2.9394929404263  -6.899587838854202  29.14982009803511  19.13645858173256  -12.205186709103224  21.655981769011667  0.000000
0.713  0.000000  0.000000  0.000000  -29.60099777610269  -0.03125718804150969  5.85538913219868  50.142174614641846  3.0235371872667955  -6.863736603528133  28.62804880252612  20.90160587846306  -12.422696133188643  21.61681129291388  0.000000
0.744  0.000000  0.000000  0.000000  -29.582807933603924  0.173316706635274  6.23399751097553  50.262138897873605  3.0988398847285996  -6.847055182965251  28.10437979832256  22.72310354862452  -12.611555700941926  21.56252052431001  0.000000
0.775  0.000000  0.000000  0.000000  -29.55077946008535  0.37637062679019734  6.654513445592268  50.39151373270246  3.166731237469873  -6.847737950382929  27.559067033244407  24.595283993600273  -12.763136938550302  21.500768507721816  0.000000
0.806  0.000000  0.000000  0.000000  -29.50332298865926  0.5739261244641074  7.11405966169786  50.53362382026537  3.2329012688885355  -6.8645102658126955  27.011557098058894  26.500199094681296  -12.898484844813566  21.431046772192616  0.000000
0.837  0.000000  0.000000  0.000000  -29.446701261908753  0.769137189178375  7.615896636815586  50.687707564944986  3.3022505909722866  -6.896026689961208  26.497919698585523  28.40836740798271  -13.047713339373866  21.346857187138315  0.000000
0.868  0.000000  0.000000  0.000000  -29.386960528348226  0.9668942599739023  8.165460002651244  50.85051530655132  3.3763850657773156  -6.943663610696058  26.051017134040947  30.28849152657415  -13.236855536721883  21.240725185260892  0.000000
0.899  0.000000  0.000000  0.000000  -29.329248467602852  1.1692425026090354  8.767519011089405  51.01884853144623  3.45271531626755  -7.008945293346232  25.68032199280041  32.11483125929667  -13.472576687978824  21.108407684342357  0.000000
0.9299999999999999  0.000000  0.000000  0.000000  -29.273200149749982  1.3746036436112108  9.421789406909769  51.18972043399343  3.5270246096734  -7.094763720953466  25.378171803424056  33.8721828965608  -13.749803287761598  20.949408275109025  0.000000
0.961  0.000000  0.000000  0.000000  -29.218789053137836  1.5807121758479383  10.125127796863756  51.35809714943381  3.595264220958704  -7.202758088445798  25.13055891718636  35.552878025544565  -14.060552694185088  20.765054470669742  0.000000
0.992  0.000000  0.000000  0.000000  -29.168373988904236  1.7886891928225666  10.87341536394021  51.51494340151014  3.6556413368185696  -7.3362142791112115  24.93875864358667  37.153870284482586  -14.41238516316404  20.55573765185828  0.000000
1.023  0.000000  0.000000  0.000000  -29.131926962254187  2.0045134261379753  11.666796707269018  51.647413810935404  3.706898255384387  -7.49867767013406  24.821087494433797  38.67399609410112  -14.828300359032943  20.32029547925058  0.000000
1.054  0.000000  0.000000  0.000000  -29.120206382998592  2.236535072892991  12.509407118069335  51.74229686658585  3.7481075877598267  -7.694482562317268  24.803219895627446  40.11448443460597  -15.336123146096616  20.05686978208856  0.000000
1.085  0.000000  0.000000  0.000000  -29.142366715830853  2.4913865583379855  13.40849942647464  51.79534446991402  3.7781165952759115  -7.922902579752907  24.889750603448107  41.47924056770323  -15.940468898546989  19.767857913319784  0.000000
1.116  0.000000  0.000000  0.000000  -29.19726895689346  2.769307330441461  14.367492752636446  51.81575146951388  3.7987122098257724  -8.175224170510866  25.045315484307462  42.77479615820841  -16.603900737848118  19.46534197921608  0.000000
1.147  0.000000  0.000000  0.000000  -29.277340003341358  3.064257145236614  15.382683882837584  51.82467540056724  3.816092062045505  -8.433589299190064  25.19978514305437  44.008516704155966  -17.252810096229112  19.1712079947566  0.000000
1.178  0.000000  0.000000  0.000000  -29.372917605964805  3.3678033611339715  16.440775840535405  51.84272384360459  3.840232806400202  -8.676081053941507  25.284875154923593  45.18700894380037  -17.814479496228795  18.908630422944924  0.000000
1.209  0.000000  0.000000  0.000000  -29.483360350859883  3.676234612582506  17.522876673614793  51.879053339435565  3.8799568838302148  -8.883176431225982  25.269261336365954  46.316300394316656  -18.250128719872812  18.69269072140343  0.000000
